:SAMPLES-PER-SECOND 30
:FULLY-SPECIFIED
:DEGREES
1
root  75.3686 40.498 -0.412653 -171.548 -86.2019 170.991
RightUpLeg  1.92525 -8.12328 -6.28929
RightLeg  2.82238 -1.71618 3.11207
RightFoot  -2.69692 -0.0720284 0.753407
RightToes  5.82063e-011 0 -3.6325e-017
Spine  -0.380561 0.00412074 1.90244
Spine1  5.09696 0.346028 -1.69088
HEad  -7.48368 0.977225 -2.5583
LeftShoulder1  0.89247 -2.4065 -7.46774
LeftArm  -14.1274 7.93552 2.70055
LeftForeArm  10.3274 -1.84945 -3.05012
LeftHand  -0.244104 0.0205437 5.32207
RightShoulder  0.769364 2.13276 5.88562
RightArm  -17.1987 0.405806 -1.47462
RightForeArm  1.57189 0.446843 4.09255
RightHand  -0.855419 2.29552 -13.0827
LeftUpLeg  2.4583 5.25678 3.41614
LeftLeg  0.46809 11.8179 -4.0469
LeftFoot  -2.51555 0.13103 -1.42925
LeftToes  4.36525e-011 -9.98543e-011 1.0027e-011
2
root  75.373 40.498 -0.409202 -171.337 -86.2466 170.778
RightUpLeg  1.95035 -8.13633 -6.30165
RightLeg  2.77557 -1.74617 3.12013
RightFoot  -2.66732 -0.0693822 0.712337
RightToes  5.82063e-011 0 -3.6325e-017
Spine  -0.304491 -0.0196119 1.92344
Spine1  5.00857 0.324602 -1.70789
HEad  -7.61994 1.12123 -2.37598
LeftShoulder1  0.905258 -2.51585 -7.40175
LeftArm  -14.1239 8.07393 2.72825
LeftForeArm  10.4929 -1.86036 -3.02272
LeftHand  -0.244104 0.0205437 5.32207
RightShoulder  0.76965 2.15246 5.89706
RightArm  -17.3413 0.428196 -1.49144
RightForeArm  1.97064 0.359967 4.01784
RightHand  -0.862679 2.45674 -12.9315
LeftUpLeg  2.4396 5.23228 3.3921
LeftLeg  0.474865 11.7988 -4.02841
LeftFoot  -2.50217 0.130478 -1.42068
LeftToes  4.36525e-011 -9.98543e-011 1.0027e-011
3
root  75.378 40.498 -0.40361 -170.867 -86.2997 170.313
RightUpLeg  1.97056 -8.16207 -6.33754
RightLeg  2.72775 -1.76963 3.13107
RightFoot  -2.64393 -0.0694861 0.713951
RightToes  5.82063e-011 0 -3.6325e-017
Spine  -0.230846 -0.0365497 1.96545
Spine1  4.90778 0.317872 -1.75859
HEad  -8.1344 1.55849 -2.03114
LeftShoulder1  0.910346 -2.63888 -7.15993
LeftArm  -14.1789 8.27504 2.5898
LeftForeArm  10.6903 -1.90796 -2.97153
LeftHand  -0.244104 0.0205437 5.32207
RightShoulder  0.767947 2.12093 5.94388
RightArm  -17.5801 0.546908 -1.51243
RightForeArm  2.23138 0.17701 3.91957
RightHand  -0.845725 2.4095 -12.7564
LeftUpLeg  2.42102 5.19339 3.34658
LeftLeg  0.460362 11.7897 -4.01415
LeftFoot  -2.47777 0.128897 -1.3961
LeftToes  4.36525e-011 -9.98543e-011 1.0027e-011
4
root  75.3779 40.498 -0.398586 -170.521 -86.3079 169.968
RightUpLeg  1.97818 -8.18179 -6.37458
RightLeg  2.71299 -1.75748 3.13637
RightFoot  -2.64577 -0.0725871 0.762078
RightToes  5.82063e-011 0 -3.6325e-017
Spine  -0.215736 -0.0262761 2.04448
Spine1  4.88134 0.346279 -1.84309
HEad  -8.00213 1.43409 -2.08085
LeftShoulder1  0.891207 -2.61377 -6.87808
LeftArm  -14.2925 8.33469 2.31481
LeftForeArm  10.842 -1.99799 -2.93298
LeftHand  -0.244104 0.0205437 5.32207
RightShoulder  0.757795 2.03126 5.98595
RightArm  -17.6982 0.710891 -1.52583
RightForeArm  1.93642 0.0552389 3.90254
RightHand  -0.807312 2.04974 -12.7527
LeftUpLeg  2.43472 5.17211 3.3127
LeftLeg  0.420232 11.8066 -4.01451
LeftFoot  -2.46034 0.127032 -1.36711
LeftToes  4.36525e-011 -9.98543e-011 1.0027e-011
5
root  75.3736 40.498 -0.394261 -170.441 -86.2929 169.878
RightUpLeg  1.99588 -8.19044 -6.39514
RightLeg  2.70851 -1.73685 3.13631
RightFoot  -2.64769 -0.0736846 0.779112
RightToes  5.82063e-011 0 -3.6325e-017
Spine  -0.237803 -0.0098994 2.15423
Spine1  4.92686 0.38219 -1.93702
HEad  -7.94838 1.33497 -2.11058
LeftShoulder1  0.870788 -2.50788 -6.78399
LeftArm  -14.3652 8.25902 2.18781
LeftForeArm  10.9848 -2.11508 -2.93084
LeftHand  -0.244104 0.0205437 5.32207
RightShoulder  0.750936 1.96917 6.01943
RightArm  -17.6482 0.786454 -1.58188
RightForeArm  1.43728 0.093534 3.9597
RightHand  -0.776925 1.70267 -12.8541
LeftUpLeg  2.47765 5.16463 3.29665
LeftLeg  0.372269 11.8252 -4.01991
LeftFoot  -2.45089 0.126319 -1.35602
LeftToes  4.36525e-011 -9.98543e-011 1.0027e-011
6
root  75.3699 40.498 -0.391353 -170.332 -86.3013 169.758
RightUpLeg  2.0177 -8.19404 -6.4063
RightLeg  2.69842 -1.74046 3.13119
RightFoot  -2.63793 -0.0722306 0.756545
RightToes  5.82063e-011 0 -3.6325e-017
Spine  -0.277311 -0.00730373 2.23581
Spine1  5.00276 0.395309 -1.99037
HEad  -7.89496 1.30317 -2.11776
LeftShoulder1  0.872522 -2.47692 -6.89891
LeftArm  -14.3377 8.19604 2.30653
LeftForeArm  11.085 -2.20411 -2.95499
LeftHand  -0.244104 0.0205437 5.32207
RightShoulder  0.752895 1.96502 6.07147
RightArm  -17.5785 0.763551 -1.69254
RightForeArm  1.26617 0.20997 4.00441
RightHand  -0.773044 1.66278 -12.8611
LeftUpLeg  2.50988 5.14893 3.27912
LeftLeg  0.334637 11.8255 -4.02527
LeftFoot  -2.43622 0.126919 -1.36536
LeftToes  4.36525e-011 -9.98543e-011 1.0027e-011
7
root  75.3692 40.498 -0.391875 -169.994 -86.3288 169.422
RightUpLeg  2.01175 -8.19109 -6.41778
RightLeg  2.71304 -1.76239 3.11522
RightFoot  -2.64316 -0.0725951 0.762202
RightToes  5.82063e-011 0 -3.6325e-017
Spine  -0.313634 -0.00642011 2.24002
Spine1  5.06162 0.392007 -1.96794
HEad  -7.78641 1.24466 -2.14386
LeftShoulder1  0.885459 -2.51302 -7.04214
LeftArm  -14.2778 8.17699 2.44089
LeftForeArm  11.0839 -2.19117 -2.97537
LeftHand  -0.244104 0.0205437 5.32207
RightShoulder  0.750692 1.93521 6.11067
RightArm  -17.579 0.772312 -1.76248
RightForeArm  1.39095 0.277511 4.00931
RightHand  -0.78887 1.84702 -12.7994
LeftUpLeg  2.50812 5.1283 3.25507
LeftLeg  0.320146 11.8181 -4.02957
LeftFoot  -2.41821 0.127191 -1.36958
LeftToes  4.36525e-011 -9.98543e-011 1.0027e-011
